<?xml version="1.0" encoding="UTF-8"?>
<svg width="13px" height="13px" viewBox="0 0 13 13" version="1.1" xmlns="http://www.w3.org/2000/svg" xmlns:xlink="http://www.w3.org/1999/xlink">
    <!-- Generator: sketchtool 63.1 (101010) - https://sketch.com -->
    <title>D6CC59C9-1D91-4D3F-9BEC-078B821D8325</title>
    <desc>Created with sketchtool.</desc>
    <g id="Page-1" stroke="none" stroke-width="1" fill="none" fill-rule="evenodd">
        <g id="Favorites" transform="translate(-348.000000, -287.000000)" fill="#4AABBB">
            <g id="Vendor-Blocks" transform="translate(191.000000, 221.000000)">
                <g id="Group-2-Copy-9">
                    <g id="icTravels" transform="translate(157.000000, 66.000000)">
                        <path d="M12.8694295,0.131002765 C12.4404485,-0.29939848 11.0248113,0.432283637 10.5958303,0.862684882 L8.92280447,2.54124974 L1.24404485,2.54124974 C1.07245246,2.54124974 0.943758165,2.67037011 0.900860067,2.84253061 C0.857961968,3.05773123 0.943758165,3.22989173 1.11535056,3.27293186 L6.17732617,5.29581771 L3.08866309,8.39470668 L0.128694295,8.39470668 C0.0857961968,8.39470668 0.0428980984,8.4377468 0,8.52382705 C0,8.56686717 0.0428980984,8.65294742 0.0857961968,8.65294742 L2.5738859,9.64287029 C2.5738859,9.68591041 2.616784,9.77199066 2.616784,9.81503078 L2.53098781,9.94415116 C2.35939541,10.0732715 2.35939541,10.3315123 2.53098781,10.5036728 C2.6596821,10.6327932 2.91707069,10.6327932 3.08866309,10.5036728 L3.17445928,10.3745524 C3.26025548,10.4175925 3.30315358,10.4175925 3.34605168,10.4606327 L4.33270794,12.9139198 C4.33270794,12.9569599 4.41850414,13 4.46140224,13 C4.50430033,13 4.50430033,12.9569599 4.54719843,12.9569599 C4.54719843,12.9139198 4.59009653,12.8708796 4.59009653,12.8708796 L4.59009653,9.98719128 L7.72165771,6.80222207 L9.69497024,11.9239969 C9.78076644,12.0531173 9.95235883,12.1822376 10.1239512,12.1391975 C10.2097474,12.1391975 10.2955436,12.0961574 10.3384417,12.0531173 C10.4242379,11.967037 10.467136,11.8809568 10.467136,11.7518364 L10.467136,4.09069422 L12.1401619,2.36908924 C12.5691428,1.98172812 13.2984105,0.518363886 12.8694295,0.131002765 Z"></path>
                    </g>
                </g>
            </g>
        </g>
    </g>
</svg>