<?xml version="1.0" encoding="UTF-8"?>
<svg width="14px" height="16px" viewBox="0 0 14 16" version="1.1" xmlns="http://www.w3.org/2000/svg" xmlns:xlink="http://www.w3.org/1999/xlink">
    <!-- Generator: sketchtool 63.1 (101010) - https://sketch.com -->
    <title>24694D47-3511-4065-A2D1-14A3A2D6CAE7</title>
    <desc>Created with sketchtool.</desc>
    <g id="Page-1" stroke="none" stroke-width="1" fill="none" fill-rule="evenodd">
        <g id="Favorites" transform="translate(-348.000000, -266.000000)" fill="#4AABBB" fill-rule="nonzero">
            <g id="Vendor-Blocks" transform="translate(191.000000, 221.000000)">
                <g id="Group-2-Copy-9">
                    <path d="M163.6,45 C159.960552,45 157,47.6241256 157,50.8500002 C157,52.0789704 157.431318,53.2579718 158.245829,54.2606026 L158.419039,54.4757816 L163.160098,60.4048265 C163.264029,60.5276417 163.42732,60.6000006 163.6,60.6000006 C163.772661,60.6000006 163.935952,60.5276417 164.039902,60.4048265 L168.721875,54.5462428 L168.952856,54.2625004 C169.768702,53.2579718 170.200001,52.0789704 170.200001,50.8500002 C170.200001,47.6241256 167.239449,45 163.6,45 Z M163.6,52.8000003 C162.386661,52.8000003 161.4,51.9254601 161.4,50.8500002 C161.4,49.7745404 162.386661,48.9000002 163.6,48.9000002 C164.81334,48.9000002 165.8,49.7745404 165.8,50.8500002 C165.8,51.9254601 164.81334,52.8000003 163.6,52.8000003 Z" id="icLocation"></path>
                </g>
            </g>
        </g>
    </g>
</svg>