<svg xmlns="http://www.w3.org/2000/svg" width="157" height="46" viewBox="0 0 157 46">
    <defs>
        <linearGradient id="7rc482vkva" x1="3.848%" x2="94.216%" y1="73.997%" y2="28.078%">
            <stop offset="0%" stop-color="#F9D1E1"/>
            <stop offset="100%" stop-color="#FB6CB7"/>
        </linearGradient>
        <linearGradient id="2ns9fezm6b" x1="95.8%" x2="7.297%" y1="29.675%" y2="74.645%">
            <stop offset="0%" stop-color="#F9D1E1"/>
            <stop offset="100%" stop-color="#FB6CB7"/>
        </linearGradient>
        <linearGradient id="s78dwhbrtd" x1="85.551%" x2="32.124%" y1="-52.427%" y2="101.347%">
            <stop offset="0%" stop-color="#C859AA"/>
            <stop offset="100%" stop-color="#E396C8"/>
        </linearGradient>
        <linearGradient id="m6ivmpxxce" x1="50%" x2="50%" y1="0%" y2="100%">
            <stop offset="0%" stop-color="#A0328F"/>
            <stop offset="100%" stop-color="#DB8FC4"/>
        </linearGradient>
        <linearGradient id="ht2oplh20f" x1="3.848%" x2="94.216%" y1="73.997%" y2="28.078%">
            <stop offset="0%" stop-color="#E567B1"/>
            <stop offset="100%" stop-color="#FB6CB7"/>
        </linearGradient>
        <radialGradient id="bsozoh3xzc" cx="20.668%" cy="100%" r="111.238%" fx="20.668%" fy="100%" gradientTransform="matrix(.43367 -.89897 .89006 .43801 -.773 .748)">
            <stop offset="0%" stop-color="#FC7EBE"/>
            <stop offset="100%" stop-color="#FFF"/>
        </radialGradient>
    </defs>
    <g fill="none" fill-rule="evenodd">
        <path fill="#969696" d="M2.995 24.062c0 6.069 4.005 7.171 5.85 7.171 3.379 0 5.433-2.965 5.433-6.86 0-5.346-3.168-7.138-5.536-7.138-2.717 0-5.747 1.723-5.747 6.827m6.339-9.173c6.546 0 8.044 6.07 8.044 9.518 0 3.792-1.741 9.172-7.975 9.172-3.97 0-6.06-2.655-6.373-3.104v7.414c0 1.207 0 2.517-1.497 2.517C0 40.406 0 39.062 0 37.924V17.269c0-1 0-1.62.418-1.966.278-.276.661-.414 1.045-.414 1.463 0 1.463 1.518 1.463 2.035v1.069c.87-1.035 2.576-3.104 6.408-3.104M31.065 24.476c-2.16.482-3.866.724-5.294 1.103-2.02.552-2.333 2-2.333 2.69 0 1.241.94 2.965 3.448 2.965 1.915 0 4.388-.793 5.432-2.586.697-1.173.766-2.793.766-4.793-.452.173-1.079.414-2.02.62M26.19 33.58c-4.005 0-5.85-2.586-5.85-5.104 0-4.068 3.795-4.861 5.92-5.275.8-.172 4.387-.793 5.084-.966.523-.138.906-.24 1.707-.517-.07-2.379-.14-4.62-4.11-4.62-2.09 0-4.318.62-5.085 2.482-.313.793-.556 1.448-1.497 1.448-.732 0-1.358-.55-1.358-1.276 0-1.034 1.184-4.862 7.731-4.862 6.895 0 7.349 3.242 7.349 7.38 0 .897-.105 4.827-.105 5.62 0 1.655.279 2.414.488 2.966.034.173.348 1 .348 1.552 0 .586-.662 1.172-1.463 1.172-1.183 0-1.671-1.655-2.02-2.931-.94.897-3.204 2.931-7.14 2.931M41.164 16.786c0-.827 0-1.896 1.322-1.896 1.29 0 1.29 1.069 1.29 1.896v1.38c1.218-1.862 2.159-3.276 4.388-3.276 1.496 0 3.587.758 3.587 2.034 0 .862-.767 1.38-1.22 1.38-.765 0-1.183-.518-2.507-.518-3.239 0-3.83 3.483-3.83 7.586v6.483c0 1.517-1.045 1.723-1.498 1.723-.418 0-.8-.137-1.08-.413-.452-.38-.452-1-.452-2.035V16.786zM56.695 12.269c0-1.31 0-1.69.245-2.138.173-.31.66-.69 1.253-.69 1.533 0 1.533 1.38 1.533 2.655v3.207h1.602c.73 0 1.88 0 1.88 1.07 0 .793-.836 1.103-1.776 1.103h-1.706v10.62c0 1.793.104 3.035 1.81 3.035.28 0 1.533-.207 1.777-.207.591 0 1.044.38 1.044 1.069 0 1.172-1.532 1.483-3.412 1.483-4.25 0-4.25-2.932-4.25-5.139V17.476h-1.15c-1.357 0-1.357-1.034-1.357-1.103 0-1.07 1.254-1.07 1.637-1.07h.87V12.27zM65.227 17.683c-.243-.656-.383-1-.383-1.414 0-.655.628-1.38 1.498-1.38 1.01 0 1.288.76 1.672 1.759l4.945 13.345 5.119-13.172c.592-1.517.767-1.931 1.672-1.931.905 0 1.358.793 1.358 1.24 0 .38-.14.76-.417 1.484l-7.244 18.378c-1.255 3.138-2.439 4.414-5.294 4.414-1.184 0-2.926-.206-2.926-1.551 0-.551.384-1.208 1.185-1.208.243 0 1.322.105 1.532.105 1.462 0 2.02-1.035 2.508-2.208l.94-2.379-6.165-15.482zM131.626 24.476c-2.159.482-3.865.724-5.293 1.103-2.02.552-2.333 2-2.333 2.69 0 1.241.939 2.965 3.447 2.965 1.916 0 4.39-.793 5.432-2.586.699-1.173.767-2.793.767-4.793-.453.173-1.079.414-2.02.62m-4.876 9.104c-4.005 0-5.852-2.586-5.852-5.104 0-4.068 3.799-4.861 5.922-5.275.801-.172 4.389-.793 5.086-.966.521-.138.905-.24 1.706-.517-.069-2.379-.14-4.62-4.11-4.62-2.09 0-4.32.62-5.085 2.482-.315.793-.556 1.448-1.496 1.448-.732 0-1.359-.55-1.359-1.276 0-1.034 1.183-4.862 7.732-4.862 6.893 0 7.348 3.242 7.348 7.38 0 .897-.105 4.827-.105 5.62 0 1.655.279 2.414.486 2.966.036.173.35 1 .35 1.552 0 .586-.661 1.172-1.462 1.172-1.186 0-1.672-1.655-2.021-2.931-.941.897-3.204 2.931-7.14 2.931M151.233 24.476c-2.158.482-3.865.724-5.293 1.103-2.02.552-2.333 2-2.333 2.69 0 1.241.938 2.965 3.447 2.965 1.916 0 4.388-.793 5.431-2.586.699-1.173.768-2.793.768-4.793-.453.173-1.08.414-2.02.62m-4.876 9.104c-4.005 0-5.852-2.586-5.852-5.104 0-4.068 3.799-4.861 5.922-5.275.801-.172 4.389-.793 5.085-.966.522-.138.906-.24 1.707-.517-.07-2.379-.14-4.62-4.11-4.62-2.091 0-4.32.62-5.085 2.482-.315.793-.557 1.448-1.497 1.448-.731 0-1.358-.55-1.358-1.276 0-1.034 1.183-4.862 7.73-4.862 6.895 0 7.35 3.242 7.35 7.38 0 .897-.105 4.827-.105 5.62 0 1.655.28 2.414.486 2.966.036.173.35 1 .35 1.552 0 .586-.662 1.172-1.463 1.172-1.185 0-1.672-1.655-2.02-2.931-.942.897-3.205 2.931-7.14 2.931"/>
        <path fill="url(#7rc482vkva)" d="M105.965 2.674c-1.12 1.11-1.75 2.612-1.75 4.18v6.608c0 4.021-3.29 7.28-7.352 7.28H90.19c-1.583 0-3.101.623-4.22 1.731-3.985 3.946-1.985 10.695 3.52 11.883l25.571 5.52c5.071 1.093 9.586-3.376 8.48-8.397l-5.574-25.318c-.77-3.49-3.84-5.558-6.995-5.558-1.773 0-3.573.652-5.006 2.07"/>
        <path fill="url(#2ns9fezm6b)" d="M76.963 14.787l5.574 25.319c1.202 5.451 8.018 7.431 12.002 3.485 1.119-1.11 1.748-2.611 1.748-4.178v-6.61c0-4.018 3.293-7.28 7.353-7.28h6.675c1.582 0 3.1-.622 4.221-1.73 3.985-3.946 1.985-10.694-3.522-11.882L85.442 6.39c-.521-.112-1.04-.167-1.545-.167-4.398 0-7.926 4.06-6.934 8.563"/>
        <path fill="url(#bsozoh3xzc)" d="M114.07 23.33c-1.12 1.108-2.638 1.732-4.22 1.732h-6.676c-4.06 0-7.354 3.26-7.354 7.28v6.608c0 1.569-.628 3.071-1.747 4.18-2.862 2.831-7.18 2.61-9.834.244 2.588 2.787 7.264 3.222 10.3.217 1.119-1.11 1.748-2.611 1.748-4.179v-6.608c0-4.02 3.293-7.28 7.353-7.28h6.675c1.582 0 3.1-.623 4.221-1.73 3.035-3.008 2.595-7.637-.22-10.199 2.39 2.628 2.613 6.904-.247 9.736"/>
        <path fill="url(#s78dwhbrtd)" d="M110.314 25.524h-6.674c-4.06 0-7.353 3.26-7.353 7.28v3.019l4.438.958c-.43-3.97 1.765-7.766 5.441-9.407l4.149-1.85z"/>
        <path fill="url(#m6ivmpxxce)" d="M110.315 25.524l-6.274.825-.255.047c-5.115.98-6.005 4.416-5.982 9.728l-1.517-.301v-3.02l.003-.21c.112-3.922 3.36-7.07 7.35-7.07h6.675z"/>
        <path fill="url(#ht2oplh20f)" d="M110.972.603l.205.003c3.082.088 6.036 2.14 6.79 5.555l5.574 25.318.06.3c.07.399.105.793.108 1.18v.1l-.005.2c-.153 4.237-4.182 7.58-8.644 6.616l-25.57-5.52-.203-.046c-5.352-1.308-7.254-7.939-3.318-11.836l.18-.17c1.099-1.001 2.54-1.56 4.04-1.56h6.674l.213-.003c3.963-.112 7.142-3.328 7.142-7.278V6.853l.005-.247c.062-1.477.681-2.881 1.74-3.93 1.435-1.42 3.235-2.073 5.009-2.073" opacity=".527"/>
    </g>
</svg>
