<?xml version="1.0" encoding="UTF-8"?>
<svg width="32px" height="32px" viewBox="0 0 32 32" version="1.1" xmlns="http://www.w3.org/2000/svg" xmlns:xlink="http://www.w3.org/1999/xlink">
    <!-- Generator: sketchtool 63.1 (101010) - https://sketch.com -->
    <title>441B7734-A5EC-48CF-9808-D68A8A15C315</title>
    <desc>Created with sketchtool.</desc>
    <defs>
        <circle id="path-1" cx="16" cy="16" r="16"></circle>
        <path d="M7.67419482,7.20017334 L6.28350924,7.20017334 C6.49634346,2.77692527 8.57959849,0.565301228 12.5332743,0.565301228 C16.4869502,0.565301228 18.5901788,2.77692527 18.8429602,7.20017334 L17.2579765,7.20017334 L16.4978871,11.5694368 L18.1391823,12.1830464 C18.9799772,10.028781 19.4003746,7.87932463 19.4003746,5.73467719 C19.4003746,2.51770604 16.305916,-0.145108387 12.5332743,0.00614161257 C8.76063269,0.157391613 5.58229097,1.86965796 5.58229097,6.3452618 C5.58229097,9.3289977 6.01827879,11.2749259 6.89025443,12.1830464 L8.50607666,11.7638512 L7.67419482,7.20017334 Z" id="path-3"></path>
    </defs>
    <g id="Page-1" stroke="none" stroke-width="1" fill="none" fill-rule="evenodd">
        <g id="Favorites" transform="translate(-1160.000000, -337.000000)">
            <g id="Vendor-Blocks" transform="translate(191.000000, 221.000000)">
                <g id="Group-2-Copy-10" transform="translate(519.000000, 0.000000)">
                    <g id="icFreelancerVendor" transform="translate(450.000000, 116.000000)">
                        <g>
                            <mask id="mask-2" fill="white">
                                <use xlink:href="#path-1"></use>
                            </mask>
                            <use id="Oval" fill="#A4E1EC" xlink:href="#path-1"></use>
                            <g id="icFreelancer" mask="url(#mask-2)">
                                <g transform="translate(-0.820513, 2.461538)">
                                    <polygon id="Rectangle" stroke="none" fill="#B17647" points="4.76553846 28.9923897 30.0228923 28.9923897 34.7884308 32.0899897 0 32.0899897"></polygon>
                                    <g id="Group" stroke="none" stroke-width="1" fill="none" transform="translate(4.683163, 0.000000)">
                                        <rect id="Rectangle" fill="#FBC8A2" x="0.320652508" y="26.1330666" width="3.57415385" height="2.85932308"></rect>
                                        <rect id="Rectangle-Copy" fill="#FBC8A2" x="21.7655756" y="26.1330666" width="3.0976" height="2.85932308"></rect>
                                        <path d="M9.37075443,13.2293474 C9.28931212,14.5082243 9.04157238,15.4458192 8.6275352,16.042132 C8.00647943,16.9366012 9.84424702,19.6844647 12.3817566,19.6844647 C14.9192663,19.6844647 16.305916,18.8549166 16.305916,16.042132 C15.9358189,15.5072306 15.6259309,14.8212536 15.5222083,13.2293474 C14.8200205,13.2293474 12.7695358,13.2293474 9.37075443,13.2293474 Z" id="Path-7" fill="#FBC599"></path>
                                        <mask id="mask-4" fill="white">
                                            <use xlink:href="#path-3"></use>
                                        </mask>
                                        <use id="Path-14" fill="#C94C45" xlink:href="#path-3"></use>
                                        <polygon id="Path-15" fill="#343434" mask="url(#mask-4)" points="7.71817366 6.89802238 7.16552943 7.16166277 7.48296065 12.3164955 8.70816308 11.6486685"></polygon>
                                        <polygon id="Path-15-Copy" fill="#343434" mask="url(#mask-4)" transform="translate(17.229646, 9.607259) scale(-1, 1) translate(-17.229646, -9.607259) " points="17.0109737 6.89802238 16.4583294 7.16166277 16.7757607 12.3164955 18.0009631 11.6486685"></polygon>
                                        <path d="M7.49932655,5.90768392 C7.31720603,3.19007046 8.65507046,1.5808868 11.5129198,1.08013296 C15.7996939,0.329002189 17.4392439,3.845332 17.4392439,5.04230123 C17.4392439,6.23927046 16.5305779,16.9562637 12.5332743,16.9562637 C9.86840529,16.9562637 8.1904227,13.2734038 7.49932655,5.90768392 Z" id="Path-13" fill="#9C6D46"></path>
                                        <path d="M0.160792892,26.3420243 L25.0665487,26.3420243 L25.0665487,21.9627551 C24.8236179,19.7777743 23.3139878,18.3949615 20.5376583,17.8143166 C17.7613288,17.2336717 16.350748,16.6429435 16.305916,16.042132 C15.2741583,17.8524782 13.9964448,18.7576512 12.4727756,18.7576512 C10.9491064,18.7576512 9.66735956,17.8524782 8.6275352,16.042132 C7.41412238,16.760841 5.62021982,17.4825749 3.24582751,18.2073339 C0.8714352,18.9320929 -0.200268005,20.1838999 0.0307178923,21.9627551 L0.160792892,26.3420243 Z" id="Path-3" fill="#C94C45"></path>
                                        <path d="M9.08873135,5.55864546 C8.58380105,6.73276436 8.31566195,7.63623103 8.28431405,8.26904546 C8.22108971,9.54534387 8.53789986,10.9118839 9.33398905,12.330806 C9.91327655,12.7139339 9.79794967,11.4499493 12.3009323,11.4499493 C13.9695874,11.4499493 15.0519557,11.8056195 15.5480371,12.5169599 C16.3033564,11.759624 16.681016,10.5656022 16.681016,8.9348945 C16.681016,6.48883296 16.0795064,5.30303296 15.5480371,4.94282527 C15.0165679,4.58261757 14.2882397,6.00878873 12.5332743,6.00878873 C11.3632974,6.00878873 10.2151164,5.85874097 9.08873135,5.55864546 Z" id="Path-11" fill="#FBC599"></path>
                                        <path d="M11.6521862,12.5169599 L13.3113987,12.5169599 C13.6971449,12.5933853 13.7965336,12.7163332 13.6095648,12.8858037 C13.4675352,13.0145407 13.2472877,13.1498954 13.017421,13.1968577 C12.5602199,13.290265 12.0174325,13.2556345 11.7125698,13.1968577 C11.2544316,13.1085298 11.0262803,12.7746231 11.1039631,12.6579423 C11.1557516,12.5801551 11.3384926,12.533161 11.6521862,12.5169599 Z" id="Path-12" fill="#FBC599"></path>
                                    </g>
                                    <path d="M8.18719508,18.2699282 L25.8864049,18.2699282 C26.3285699,18.2699282 26.6870154,18.6283737 26.6870154,19.0705386 L26.6870154,31.6134358 L26.6870154,31.6134358 L7.38658462,31.6134358 L7.38658462,19.0705386 C7.38658462,18.6283737 7.74503013,18.2699282 8.18719508,18.2699282 Z" id="Rectangle" stroke="none" fill="#D8D8D8"></path>
                                    <circle id="Oval" stroke="#FFFFFF" stroke-width="0.600457846" fill="#D8D8D8" cx="17.1559385" cy="24.941682" r="2.62104615"></circle>
                                </g>
                            </g>
                        </g>
                    </g>
                </g>
            </g>
        </g>
    </g>
</svg>