<?xml version="1.0" encoding="UTF-8"?>
<svg width="14px" height="14px" viewBox="0 0 14 14" version="1.1" xmlns="http://www.w3.org/2000/svg" xmlns:xlink="http://www.w3.org/1999/xlink">
    <!-- Generator: sketchtool 63.1 (101010) - https://sketch.com -->
    <title>1F89CC06-9516-4C08-9EB2-8DAAF564CFCF</title>
    <desc>Created with sketchtool.</desc>
    <g id="Page-1" stroke="none" stroke-width="1" fill="none" fill-rule="evenodd" opacity="0.900000036">
        <g id="Favorites" transform="translate(-353.000000, -350.000000)" fill="#FFFFFF" fill-rule="nonzero">
            <g id="Vendor-Blocks" transform="translate(191.000000, 221.000000)">
                <g id="Group-2-Copy-9">
                    <g id="icStarRating" transform="translate(162.000000, 129.000000)">
                        <path d="M13.7059851,6.07714637 C13.95783,5.81770047 14.054119,5.51728943 13.9705855,5.25296672 C13.886741,4.98848146 13.6376962,4.80738952 13.2869179,4.75602053 L10.1345799,4.2963006 C9.74164602,4.23875433 9.24153418,3.86356564 9.06420059,3.49325376 L7.63930962,0.518079004 C7.48157605,0.188732264 7.2393757,0 6.97384198,0 C6.97275309,0 6.97150864,0 6.97041975,0 C6.70364158,0.00162560089 6.46206345,0.193121386 6.30775212,0.525394208 L4.91428342,3.51747521 C4.74114983,3.88990037 4.24554911,4.2706161 3.85323742,4.33238894 L0.705566162,4.82949769 C0.355876762,4.884443 0.108854179,5.0681359 0.0276540609,5.33343397 C-0.0535460576,5.59889459 0.0460096433,5.89833028 0.300810015,6.1556629 L2.59292447,8.46401616 C2.87836933,8.75174752 3.07188073,9.36232322 3.00716952,9.77083672 L2.48667987,13.0530875 C2.42865757,13.4175472 2.51950214,13.719909 2.73588024,13.8823065 C2.84010261,13.9606605 2.96485835,14 3.10096966,14 C3.24703654,14 3.40648122,13.9548083 3.56825923,13.8649126 L6.37775222,12.3005968 C6.72759717,12.1056873 7.34328696,12.102111 7.69499859,12.2929565 L10.5206694,13.8247602 C10.8353587,13.9949606 11.1388481,13.9975616 11.3533595,13.8327257 C11.5680265,13.6677272 11.6557599,13.3642275 11.5940043,13.0000929 L11.0382035,9.72401941 C10.9691367,9.31664383 11.1559592,8.70379229 11.4382929,8.4129723 L13.7059851,6.07714637 Z"></path>
                    </g>
                </g>
            </g>
        </g>
    </g>
</svg>