<?xml version="1.0" encoding="UTF-8"?>
<svg width="16px" height="15px" viewBox="0 0 16 15" version="1.1" xmlns="http://www.w3.org/2000/svg" xmlns:xlink="http://www.w3.org/1999/xlink">
    <!-- Generator: sketchtool 63.1 (101010) - https://sketch.com -->
    <title>31DC2CBA-A880-4CA6-B363-9DF9A558A5C8</title>
    <desc>Created with sketchtool.</desc>
    <g id="Page-1" stroke="none" stroke-width="1" fill="none" fill-rule="evenodd">
        <g id="Favorites" transform="translate(-503.000000, -244.000000)" fill="#4AABBB" fill-rule="nonzero">
            <g id="Vendor-Blocks" transform="translate(191.000000, 221.000000)">
                <g id="Group-2-Copy-9">
                    <g id="icVerified" transform="translate(312.018000, 23.048000)">
                        <path d="M14.958,6.744 C15.414,7.152 15.414,7.848 14.958,8.232 L14.67,8.496 C14.358,8.784 14.238,9.24 14.406,9.624 L14.55,9.984 C14.79,10.536 14.478,11.16 13.902,11.328 L13.518,11.424 C13.11,11.544 12.822,11.904 12.798,12.336 L12.774,12.72 C12.75,13.248 12.294,13.656 11.79,13.656 C11.742,13.656 11.67,13.656 11.622,13.632 L11.238,13.56 C11.19,13.56 11.118,13.536 11.07,13.536 C10.71,13.536 10.374,13.728 10.206,14.04 L10.014,14.376 C9.822,14.712 9.486,14.88 9.15,14.88 C8.958,14.88 8.742,14.808 8.574,14.688 L8.262,14.448 C8.094,14.328 7.878,14.256 7.686,14.256 C7.494,14.256 7.278,14.328 7.11,14.448 L6.798,14.664 C6.63,14.784 6.414,14.856 6.222,14.856 C5.862,14.856 5.526,14.664 5.358,14.328 L5.166,13.992 C4.998,13.656 4.662,13.464 4.302,13.464 C4.254,13.464 4.182,13.464 4.134,13.488 L3.678,13.632 C3.63,13.632 3.558,13.656 3.51,13.656 C2.982,13.656 2.55,13.248 2.526,12.72 L2.502,12.336 C2.478,11.904 2.19,11.544 1.782,11.424 L1.398,11.328 C0.822,11.16 0.534,10.536 0.75,9.984 L0.894,9.624 C1.062,9.24 0.966,8.784 0.63,8.496 L0.342,8.232 C-0.114,7.824 -0.114,7.128 0.342,6.744 L0.63,6.48 C0.942,6.192 1.062,5.736 0.894,5.352 L0.75,4.992 C0.51,4.44 0.822,3.816 1.398,3.648 L1.782,3.552 C2.19,3.432 2.478,3.072 2.502,2.64 L2.526,2.256 C2.55,1.728 3.006,1.32 3.51,1.32 C3.558,1.32 3.63,1.32 3.678,1.344 L4.062,1.416 C4.11,1.416 4.182,1.44 4.23,1.44 C4.59,1.44 4.926,1.248 5.094,0.936 L5.286,0.6 C5.478,0.264 5.814,0.096 6.15,0.096 C6.342,0.096 6.558,0.168 6.726,0.288 L7.038,0.528 C7.206,0.648 7.422,0.72 7.614,0.72 C7.806,0.72 8.022,0.648 8.19,0.528 L8.574,0.192 C8.742,0.072 8.958,5.41788836e-14 9.15,5.41788836e-14 C9.51,5.41788836e-14 9.846,0.192 10.014,0.528 L10.206,0.864 C10.374,1.2 10.71,1.392 11.07,1.392 C11.118,1.392 11.19,1.392 11.238,1.368 L11.622,1.296 C11.67,1.296 11.742,1.272 11.79,1.272 C12.318,1.272 12.75,1.68 12.774,2.208 L12.798,2.592 C12.822,3.024 13.11,3.384 13.518,3.504 L13.902,3.6 C14.478,3.768 14.766,4.392 14.55,4.944 L14.406,5.304 C14.238,5.688 14.334,6.144 14.67,6.432 L14.958,6.744 Z M10.83,6.096 L9.63,4.896 L6.87,7.656 L5.718,6.48 L4.518,7.68 L5.67,8.856 L6.87,10.056 L8.07,8.856 L10.83,6.096 Z"></path>
                    </g>
                </g>
            </g>
        </g>
    </g>
</svg>